<svg width="474" height="614" viewBox="0 0 474 614" fill="none" xmlns="http://www.w3.org/2000/svg">
<path opacity="0.9" d="M221.046 222.106L224.55 220.088V246.723L221.446 248.548C221.446 248.548 221.445 248.549 221.444 248.549C214.394 252.601 208.524 255.077 203.877 255.899L203.874 255.899C199.089 256.783 195.412 256.292 192.75 254.428L192.75 254.428L192.74 254.421C189.995 252.596 187.953 249.49 186.716 244.965L186.714 244.96C185.474 240.599 184.876 235.093 184.876 228.425V193.169C184.876 186.632 183.801 181.819 181.409 178.929C180.2 177.432 178.584 176.696 176.609 176.736C174.852 176.772 172.831 177.42 170.558 178.636L170.501 152.225C175.5 149.306 179.142 145.09 181.422 139.764L181.424 139.76C183.668 134.374 184.817 128.332 184.817 121.76V86.5039C184.817 79.8407 185.413 73.602 186.662 67.7856L186.662 67.7856L186.664 67.778C187.852 61.7949 189.93 56.227 192.84 51.0133L192.84 51.0133L192.844 51.0056C195.631 45.8004 199.43 40.9413 204.251 36.3106L204.253 36.3085C208.95 31.742 214.845 27.4038 221.885 23.3566L221.889 23.3542L224.49 21.8251V48.4489L220.487 50.7546L220.485 50.7557C215.393 53.7191 211.885 57.3169 210.153 61.5095C208.32 65.7172 207.418 71.1688 207.418 77.7197V108.793C207.418 116.889 206.642 124.139 205.095 130.607C203.556 137.047 200.412 143.683 195.708 150.395L195.302 150.975L195.983 151.164C200.556 152.434 203.602 155.301 205.107 159.862L205.109 159.869C206.7 164.453 207.478 170.783 207.478 178.887V209.96C207.478 213.237 207.703 215.978 208.162 218.175C208.619 220.36 209.315 222.05 210.289 223.187C211.262 224.397 212.709 224.857 214.512 224.649C216.296 224.444 218.477 223.583 221.046 222.106L221.046 222.106Z" fill="url(#paint0_linear)" stroke="url(#paint1_linear)"/>
<path opacity="0.9" d="M247.323 34.8002L243.82 36.8184V10.1828L246.926 8.3567C246.926 8.35658 246.927 8.35646 246.927 8.35634C253.972 4.24683 259.904 1.76912 264.674 0.887543C269.33 0.0647724 273.017 0.549395 275.806 2.36356C278.493 4.24861 280.477 7.35622 281.714 11.8811L281.715 11.886C282.956 16.2469 283.553 21.7536 283.553 28.4212V63.6775C283.553 70.2142 284.629 75.0268 287.02 77.917C288.229 79.4145 289.845 80.1503 291.821 80.1099C293.577 80.074 295.597 79.4264 297.87 78.2111V104.8C292.87 107.719 289.227 111.935 286.948 117.261L286.946 117.266C284.702 122.652 283.553 128.694 283.553 135.266V170.522C283.553 177.185 282.957 183.424 281.707 189.24L281.706 189.247C280.518 195.173 278.498 200.743 275.707 205.897C272.799 211.165 268.999 216.025 264.299 220.595C259.48 225.165 253.523 229.563 246.485 233.609L246.481 233.612L243.88 235.141V208.517L247.878 206.214C247.879 206.213 247.879 206.213 247.88 206.213C253.043 203.304 256.545 199.645 258.394 195.401L258.394 195.401L258.399 195.39C260.109 191.186 260.952 185.797 260.952 179.246V148.173C260.952 140.077 261.728 132.827 263.274 126.359C264.814 119.919 267.958 113.283 272.662 106.571L273.068 105.991L272.386 105.802C267.814 104.532 264.768 101.665 263.263 97.1039L263.263 97.1038L263.26 97.0966C261.67 92.5125 260.892 86.183 260.892 78.0787V47.0054C260.892 43.7007 260.681 40.9473 260.254 38.7387C259.828 36.537 259.178 34.8356 258.27 33.6711L258.263 33.6617L258.255 33.6527C257.22 32.448 255.733 32.0037 253.899 32.2274C252.087 32.4484 249.892 33.3228 247.324 34.8L247.323 34.8002Z" fill="url(#paint2_linear)" stroke="url(#paint3_linear)"/>
<path opacity="0.15" d="M0.5 377.405V76.132L125.953 3.86505V305.138L0.5 377.405Z" fill="url(#paint4_linear)" stroke="url(#paint5_linear)"/>
<path d="M150.174 42.6191L49.5986 100.523V128.31L150.174 70.4058V42.6191Z" fill="#2CF10C"/>
<path opacity="0.2" d="M109.92 171.274L14.5562 226.131V310.208L109.92 255.292V171.274Z" fill="url(#paint6_linear)"/>
<path opacity="0.15" d="M110.878 106.797L14.0769 162.55V172.051L110.878 116.298V106.797Z" fill="white"/>
<path opacity="0.15" d="M110.938 125.919L27.2554 174.083V183.584L110.938 135.42V125.919Z" fill="white"/>
<path opacity="0.15" d="M110.938 144.802L39.8945 185.675V195.176L110.938 154.303V144.802Z" fill="white"/>
<path opacity="0.2" d="M126.453 3L0 75.843V116.358L126.453 43.5745V3Z" fill="url(#paint7_linear)"/>
<path opacity="0.2" d="M94.8247 41.7225C94.8247 47.8774 98.4188 50.7457 102.852 48.1762C107.284 45.6067 110.878 38.6152 110.878 32.4603C110.878 26.3054 107.284 23.4371 102.852 26.0066C98.4188 28.5761 94.8247 35.6274 94.8247 41.7225Z" fill="white"/>
<path opacity="0.15" d="M60.5594 611.406L60.5002 312.261L446.743 89.9017L446.802 389.046L60.5594 611.406Z" fill="url(#paint8_linear)" stroke="url(#paint9_linear)" stroke-width="3"/>
<path d="M474 161.884L373.425 219.788V247.574L474 189.67V161.884Z" fill="#2CF10C"/>
<path opacity="0.15" d="M421.946 238.253L198.691 366.849V376.35L422.006 247.754L421.946 238.253Z" fill="white"/>
<path opacity="0.15" d="M422.005 257.375L229.301 368.343V377.844L421.945 266.936L422.005 257.375Z" fill="white"/>
<path opacity="0.15" d="M422.005 276.317L258.054 370.732V380.234L422.005 285.819V276.317Z" fill="white"/>
<path opacity="0.2" d="M75.374 593.057V510.134L270.732 397.651V480.574L75.374 593.057Z" fill="url(#paint10_linear)" stroke="url(#paint11_linear)"/>
<path opacity="0.15" d="M256.496 421.943L226.905 438.974V466.761L256.496 449.73V421.943Z" fill="white"/>
<path opacity="0.15" d="M220.256 444.173L190.664 461.203V488.99L220.256 471.96V444.173Z" fill="white"/>
<path opacity="0.15" d="M183.835 464.788L154.244 481.819V509.605L183.835 492.575V464.788Z" fill="white"/>
<path opacity="0.15" d="M147.355 486.72L117.763 503.75V531.537L147.355 514.506V486.72Z" fill="white"/>
<path opacity="0.2" d="M295.573 463.087V380.164L458.046 286.624V369.547L295.573 463.087Z" fill="url(#paint12_linear)" stroke="url(#paint13_linear)"/>
<path opacity="0.15" d="M442.073 316.772L312.206 391.528V401.029L442.073 326.274V316.772Z" fill="white"/>
<path opacity="0.15" d="M442.073 335.895L338.023 395.77V405.272L442.013 345.396L442.073 335.895Z" fill="white"/>
<path opacity="0.2" d="M448.242 87.3076L59.479 311.155V352.148L448.182 128.3L448.242 87.3076Z" fill="url(#paint14_linear)"/>
<path opacity="0.2" d="M405.892 132.185C405.892 138.34 409.486 141.209 413.918 138.639C418.351 136.07 421.945 129.078 421.945 122.923C421.945 116.768 418.351 113.9 413.918 116.47C409.486 119.039 405.892 126.09 405.892 132.185Z" fill="white"/>
<defs>
<linearGradient id="paint0_linear" x1="158.829" y1="20.7958" x2="233.34" y2="182.384" gradientUnits="userSpaceOnUse">
<stop stop-color="#2CF10C"/>
<stop offset="0.903" stop-color="#34A622" stop-opacity="0"/>
</linearGradient>
<linearGradient id="paint1_linear" x1="197.373" y1="0.499756" x2="197.525" y2="256.825" gradientUnits="userSpaceOnUse">
<stop stop-color="#2CF10C"/>
<stop offset="0.806725" stop-color="white" stop-opacity="0"/>
</linearGradient>
<linearGradient id="paint2_linear" x1="263.873" y1="-1.7662e-07" x2="268.093" y2="172.007" gradientUnits="userSpaceOnUse">
<stop stop-color="#2CF10C"/>
<stop offset="0.903" stop-color="#34A622" stop-opacity="0"/>
</linearGradient>
<linearGradient id="paint3_linear" x1="270.692" y1="-20.4636" x2="270.845" y2="236.015" gradientUnits="userSpaceOnUse">
<stop stop-color="#2CF10C"/>
<stop offset="0.806725" stop-color="white" stop-opacity="0"/>
</linearGradient>
<linearGradient id="paint4_linear" x1="-2.39081" y1="77.2171" x2="118.084" y2="286.448" gradientUnits="userSpaceOnUse">
<stop stop-color="white"/>
<stop offset="1" stop-color="white" stop-opacity="0"/>
</linearGradient>
<linearGradient id="paint5_linear" x1="63.2265" y1="3" x2="63.2265" y2="378.27" gradientUnits="userSpaceOnUse">
<stop stop-color="white" stop-opacity="0"/>
<stop offset="0.541034" stop-color="white"/>
<stop offset="1" stop-color="white" stop-opacity="0"/>
</linearGradient>
<linearGradient id="paint6_linear" x1="44.0252" y1="209.201" x2="77.5089" y2="267.352" gradientUnits="userSpaceOnUse">
<stop stop-color="white"/>
<stop offset="1" stop-color="white" stop-opacity="0"/>
</linearGradient>
<linearGradient id="paint7_linear" x1="83.0842" y1="3.62833" x2="44.6949" y2="112.578" gradientUnits="userSpaceOnUse">
<stop stop-color="white"/>
<stop offset="1" stop-color="white" stop-opacity="0"/>
</linearGradient>
<linearGradient id="paint8_linear" x1="187.965" y1="237.138" x2="251.778" y2="347.989" gradientUnits="userSpaceOnUse">
<stop stop-color="white"/>
<stop offset="1" stop-color="white" stop-opacity="0"/>
</linearGradient>
<linearGradient id="paint9_linear" x1="253.651" y1="87.3076" x2="253.651" y2="614" gradientUnits="userSpaceOnUse">
<stop stop-color="white" stop-opacity="0"/>
<stop offset="0.541034" stop-color="white"/>
<stop offset="1" stop-color="white" stop-opacity="0"/>
</linearGradient>
<linearGradient id="paint10_linear" x1="154.833" y1="463.82" x2="188.317" y2="521.971" gradientUnits="userSpaceOnUse">
<stop stop-color="white"/>
<stop offset="1" stop-color="white" stop-opacity="0"/>
</linearGradient>
<linearGradient id="paint11_linear" x1="173.053" y1="396.786" x2="173.053" y2="593.922" gradientUnits="userSpaceOnUse">
<stop stop-color="white" stop-opacity="0"/>
<stop offset="0.541034" stop-color="white"/>
<stop offset="1" stop-color="white" stop-opacity="0"/>
</linearGradient>
<linearGradient id="paint12_linear" x1="358.558" y1="343.295" x2="392.042" y2="401.446" gradientUnits="userSpaceOnUse">
<stop stop-color="white"/>
<stop offset="1" stop-color="white" stop-opacity="0"/>
</linearGradient>
<linearGradient id="paint13_linear" x1="376.809" y1="285.759" x2="376.809" y2="463.952" gradientUnits="userSpaceOnUse">
<stop stop-color="white" stop-opacity="0"/>
<stop offset="0.541034" stop-color="white"/>
<stop offset="1" stop-color="white" stop-opacity="0"/>
</linearGradient>
<linearGradient id="paint14_linear" x1="351.784" y1="54.2782" x2="204.722" y2="304" gradientUnits="userSpaceOnUse">
<stop stop-color="white"/>
<stop offset="1" stop-color="white" stop-opacity="0"/>
</linearGradient>
</defs>
</svg>
