<svg width="46" height="55" viewBox="0 0 46 55" fill="none" xmlns="http://www.w3.org/2000/svg">
<path d="M10.296 46.728C9.648 46.728 9.36 46.224 9.36 45.216V9C9.36 8.064 9.648 7.632 10.296 7.632C11.088 7.632 11.232 8.136 11.232 9V22.896H20.16V8.712C20.16 3.456 17.424 0 11.088 0H9.576C2.736 0 0 4.104 0 9.72V44.568C0 50.904 2.736 54.576 9.648 54.576H11.088C17.496 54.576 20.16 50.256 20.16 45.432V29.592H11.232V45.216C11.232 46.08 11.088 46.728 10.296 46.728Z" fill="white"/>
<g style="mix-blend-mode:hard-light" opacity="0.9">
<path d="M27.9416 54.0719L29.1656 23.5439L30.3176 54.0719H40.6136L45.0056 0.503906H36.2216L35.1416 35.7119L33.5576 0.503906H25.0616L23.5496 35.4959L22.4696 0.503906H13.0376L17.4296 54.0719H27.9416Z" fill="#2CF10C"/>
</g>
</svg>
